<svg width="74" height="95" viewBox="0 0 74 95" fill="none" xmlns="http://www.w3.org/2000/svg">
<path d="M74 73H67V81H59V88H51V95H23V88H15V81H7V73H0V43H7V36H15V28H22V21H29V14H37V7H30V0H37V7H45V14H51.5H52V29H45V43H59V37H67V43H73.5L74 73Z" fill="#DC0000"/>
<path d="M59 43H67V73H59V43Z" fill="#F5881C"/>
<path d="M51 81H59V73H67V43H59V48H51H45V43H40V29H45V14H37V21H29V28H22V36H15V43H7V73H15V81H23V88H51V81Z" fill="#F68621"/>
<path d="M23 68V88H51V73H59V53H53V63H46V57H39V50H38.5H30V42H22V42.5V43.5V50H14V68H23Z" fill="#FBD50E"/>
<path d="M51 73V81V88H23V81H30V73H51Z" fill="#FBEE1E"/>
<path d="M30 88V81H36V73H44V88H30Z" fill="white"/>
<path d="M36.5 73V81" stroke="#FBEE22"/>
<path d="M30 65.5V73H44V65.5H30Z" fill="#FBEE22"/>
<path d="M23 81H30V60H36V65H44V73H51V88H44V73H37V81H30V88H23V81Z" fill="#FBEE22"/>
<line x1="39.5" y1="29" x2="39.5" y2="43" stroke="#EE0000"/>
<line x1="73.5" y1="73" x2="73.5" y2="43" stroke="#DC0000"/>
</svg>
